<svg width="24" height="24" viewBox="0 0 24 24" xmlns="http://www.w3.org/2000/svg">
<path d="M22.0393 14.4934C21.8983 14.3362 21.7056 14.2476 21.5043 14.2476C21.3031 14.2476 21.1104 14.3362 20.9693 14.4934L17.5693 18.2287V8.37014C17.5693 7.91641 17.2336 7.5486 16.8193 7.5486C16.4051 7.5486 16.0693 7.91641 16.0693 8.37014V18.2287L12.6593 14.4934C12.47 14.284 12.1931 14.2012 11.9328 14.2761C11.6726 14.3511 11.4687 14.5724 11.3978 14.8567C11.327 15.141 11.4 15.4451 11.5893 15.6545L16.2893 20.759C16.3568 20.8358 16.4387 20.8956 16.5293 20.9343C16.6208 20.978 16.7196 21.0003 16.8193 21C16.9159 21.0004 17.0114 20.978 17.0993 20.9343C17.1929 20.8955 17.278 20.8358 17.3493 20.759L22.0393 15.6216C22.3124 15.305 22.3124 14.81 22.0393 14.4934Z"/>
<path d="M11.5993 9.49839C11.8956 9.82001 12.3731 9.82001 12.6693 9.49839C12.9618 9.17764 12.9618 8.65803 12.6693 8.33728L7.96934 3.23276C7.90191 3.15594 7.82001 3.09614 7.72934 3.05749C7.54578 2.98084 7.3429 2.98084 7.15934 3.05749C7.06697 3.09877 6.98225 3.15816 6.90934 3.23276L2.21934 8.33728C1.92689 8.65803 1.92689 9.17764 2.21934 9.49839C2.35863 9.65497 2.54975 9.74329 2.74934 9.74329C2.94893 9.74329 3.14005 9.65497 3.27934 9.49839L6.68934 5.76311V15.6216C6.68934 15.9151 6.83229 16.1863 7.06434 16.3331C7.29639 16.4799 7.58229 16.4799 7.81434 16.3331C8.04639 16.1863 8.18934 15.9151 8.18934 15.6216V5.76311L11.5993 9.49839Z"/>
</svg>
